<svg width="50" height="50" viewBox="0 0 50 50" fill="none" xmlns="http://www.w3.org/2000/svg">
<path d="M14.7344 20.4438L10.4469 24.7313C8.68855 26.4896 7.70074 28.8743 7.70074 31.361C7.70074 33.8476 8.68855 36.2323 10.4469 37.9906C12.2052 39.749 14.5899 40.7368 17.0765 40.7368C19.5632 40.7368 21.9479 39.749 23.7062 37.9906L29.4187 32.275C30.479 31.2146 31.2695 29.9153 31.7237 28.4861C32.1779 27.057 32.2827 25.5397 32.0292 24.0617C31.7757 22.5837 31.1714 21.188 30.2669 19.9919C29.3625 18.7958 28.1843 17.8341 26.8312 17.1875L25 19.0188C24.8141 19.205 24.6524 19.414 24.5187 19.6406C25.5641 19.9412 26.513 20.5093 27.2715 21.289C28.03 22.0686 28.572 23.0327 28.8437 24.0859C29.1155 25.1391 29.1077 26.2451 28.821 27.2944C28.5344 28.3437 27.9788 29.3 27.2094 30.0688L21.5 35.7813C20.3272 36.954 18.7366 37.6129 17.0781 37.6129C15.4196 37.6129 13.829 36.954 12.6562 35.7813C11.4835 34.6085 10.8246 33.0179 10.8246 31.3594C10.8246 29.7009 11.4835 28.1103 12.6562 26.9375L15.1344 24.4625C14.7847 23.1523 14.6496 21.7972 14.7344 20.4438Z" fill="black"/>
<path d="M20.5812 14.6C19.5209 15.6605 18.7305 16.9598 18.2763 18.3889C17.822 19.8181 17.7172 21.3353 17.9707 22.8134C18.2242 24.2914 18.8285 25.687 19.733 26.8831C20.6375 28.0793 21.8157 29.041 23.1687 29.6875L25.5906 27.2625C24.5311 26.9783 23.565 26.4203 22.7895 25.6444C22.0139 24.8686 21.4563 23.9022 21.1725 22.8426C20.8888 21.7829 20.8889 20.6673 21.1729 19.6077C21.457 18.5481 22.0149 17.5819 22.7906 16.8063L28.5 11.0938C29.6727 9.92102 31.2633 9.26217 32.9219 9.26217C34.5804 9.26217 36.171 9.92102 37.3437 11.0938C38.5165 12.2665 39.1753 13.8571 39.1753 15.5157C39.1753 17.1742 38.5165 18.7648 37.3437 19.9375L34.8656 22.4125C35.2156 23.725 35.35 25.0844 35.2656 26.4344L39.5531 22.1469C41.3114 20.3886 42.2992 18.0038 42.2992 15.5172C42.2992 13.0306 41.3114 10.6458 39.5531 8.88753C37.7948 7.12922 35.41 6.14142 32.9234 6.14142C30.4368 6.14142 28.052 7.12922 26.2937 8.88753L20.5812 14.6Z" fill="black"/>
</svg>
